<?xml version="1.0" encoding="UTF-8" standalone="no"?>
<svg
   viewBox="0 0 850 850"
   version="1.1"
   xmlns="http://www.w3.org/2000/svg"
   xmlns:svg="http://www.w3.org/2000/svg">
  <defs />
  <g
     transform="translate(-546.4554,-555.7200) scale(2.307495)">
    <g
       data-name="Layer 2">
      <g
         data-name="Layer 1">
        <path
           d="M595.8,388.25V563.06a37.47,37.47,0,0,1-37.46,37.47H283.66a37.47,37.47,0,0,1-37.46-37.47V388.25Z"
           fill="#c9c9b9"
           fill-rule="evenodd"
           style="fill:#d7d6ca;fill-opacity:1" />
        <path
           d="M246.2,387.62V312.71a37.49,37.49,0,0,1,37.46-37.46H558.34a37.49,37.49,0,0,1,37.46,37.46v74.91Z"
           fill-rule="evenodd"
           fill="#BCBBA7" />
        <path
           d="M308.63,262a12.49,12.49,0,1,1,25,0v49.93a12.49,12.49,0,0,1-25,0Z"
           fill-rule="evenodd"
           fill="#969686"
           style="fill:#878779;fill-opacity:1" />
        <path
           d="M508.4,262a12.49,12.49,0,1,1,25,0v49.93a12.49,12.49,0,0,1-25,0Z"
           fill-rule="evenodd"
           fill="#969686"
           style="fill:#878779;fill-opacity:1" />
      </g>
    </g>
  </g>
</svg>
