<?xml version="1.0" encoding="UTF-8" standalone="no"?>
<svg
   viewBox="0 0 680 680"
   width="680"
   height="680"
   version="1.1"
   id="svg3"
   sodipodi:docname="plm_icon.svg"
   inkscape:version="1.4.4 (1:1.4.4+202605061435+dcaf3e7d9e)"
   xmlns:inkscape="http://www.inkscape.org/namespaces/inkscape"
   xmlns:sodipodi="http://sodipodi.sourceforge.net/DTD/sodipodi-0.dtd"
   xmlns="http://www.w3.org/2000/svg"
   xmlns:svg="http://www.w3.org/2000/svg">
  <sodipodi:namedview
     id="namedview3"
     pagecolor="#ffffff"
     bordercolor="#000000"
     borderopacity="0.25"
     inkscape:showpageshadow="2"
     inkscape:pageopacity="0.0"
     inkscape:pagecheckerboard="0"
     inkscape:deskcolor="#d1d1d1"
     inkscape:zoom="0.85153424"
     inkscape:cx="242.50346"
     inkscape:cy="339.97458"
     inkscape:window-width="1920"
     inkscape:window-height="1131"
     inkscape:window-x="0"
     inkscape:window-y="0"
     inkscape:window-maximized="1"
     inkscape:current-layer="svg3" />
  <defs
     id="defs1">
    <clipPath
       id="bounds">
      <rect
         width="680"
         height="680"
         rx="100"
         ry="100"
         id="rect1" />
    </clipPath>
  </defs>
  <rect
     class="cls-1"
     width="850"
     height="850"
     rx="72.610001"
     id="rect1-6"
     style="fill:#ffffff"
     x="0"
     y="0"
     transform="matrix(0.79947308,0,0,0.79947308,0.223941,0.223941)" />
  <g
     clip-path="url(#bounds)"
     id="g3"
     transform="matrix(0.76719009,0,0,0.76719009,59.975617,79.155369)">
    <!-- Left D -->
    <path
       d="m 80,190 v 300 c 0,0 210,0 210,-150 C 290,190 80,190 80,190 Z"
       fill="#d4d870"
       opacity="0.9"
       id="path1" />
    <!-- Middle D -->
    <path
       d="m 260,190 v 300 c 0,0 210,0 210,-150 C 470,190 260,190 260,190 Z"
       fill="#9ca000"
       opacity="0.9"
       id="path2" />
    <!-- Right D -->
    <path
       d="m 440,190 v 300 c 0,0 210,0 210,-150 C 650,190 440,190 440,190 Z"
       fill="#6b6e00"
       opacity="0.9"
       id="path3" />
  </g>
</svg>
